<svg width="24" height="24" viewBox="0 0 24 24" fill="none" xmlns="http://www.w3.org/2000/svg">
<path fill-rule="evenodd" clip-rule="evenodd" d="M2.74999 4.25C3.01521 4.25 3.26956 4.35536 3.4571 4.54289C3.64463 4.73043 3.74999 4.98478 3.74999 5.25C3.74999 5.76 3.73199 6.274 3.77399 6.782C3.82099 7.354 4.17399 7.682 4.71799 7.726C5.00099 7.749 5.37299 7.75 5.94999 7.75H17.55C18.027 7.75 18.756 7.87 19.204 7.641C19.559 7.461 19.695 7.157 19.726 6.782C19.768 6.274 19.75 5.76 19.75 5.25C19.75 4.98478 19.8553 4.73043 20.0429 4.54289C20.2304 4.35536 20.4848 4.25 20.75 4.25C21.0152 4.25 21.2696 4.35536 21.4571 4.54289C21.6446 4.73043 21.75 4.98478 21.75 5.25C21.75 5.815 21.765 6.382 21.72 6.945C21.687 7.34 21.616 7.734 21.423 8.112C21.1354 8.67646 20.6765 9.13538 20.112 9.423C19.734 9.616 19.34 9.687 18.945 9.719C18.57 9.75 18.115 9.75 17.588 9.75H5.91199C5.38499 9.75 4.93099 9.75 4.55599 9.72C4.16099 9.687 3.76699 9.616 3.38899 9.423C2.82453 9.13538 2.3656 8.67646 2.07799 8.112C1.88499 7.734 1.81399 7.34 1.78199 6.945C1.73599 6.382 1.75099 5.815 1.75099 5.25C1.75099 4.98478 1.85635 4.73043 2.04388 4.54289C2.23142 4.35536 2.48477 4.25 2.74999 4.25ZM5.91099 14.25H17.588C18.116 14.25 18.57 14.25 18.945 14.28C19.34 14.313 19.734 14.384 20.112 14.577C20.6765 14.8646 21.1354 15.3235 21.423 15.888C21.616 16.266 21.687 16.66 21.719 17.055C21.765 17.618 21.75 18.185 21.75 18.75C21.75 19.0152 21.6446 19.2696 21.4571 19.4571C21.2696 19.6446 21.0152 19.75 20.75 19.75C20.4848 19.75 20.2304 19.6446 20.0429 19.4571C19.8553 19.2696 19.75 19.0152 19.75 18.75C19.75 18.24 19.768 17.727 19.726 17.218C19.679 16.646 19.326 16.318 18.782 16.274C18.499 16.251 18.127 16.25 17.55 16.25H5.94999C5.37299 16.25 5.00099 16.25 4.71799 16.274C4.14599 16.321 3.81799 16.674 3.77399 17.218C3.73199 17.727 3.74999 18.24 3.74999 18.75C3.74999 19.0152 3.64463 19.2696 3.4571 19.4571C3.26956 19.6446 3.01521 19.75 2.74999 19.75C2.48477 19.75 2.23042 19.6446 2.04288 19.4571C1.85535 19.2696 1.74999 19.0152 1.74999 18.75C1.74999 18.186 1.73499 17.618 1.77999 17.055C1.81299 16.66 1.88399 16.266 2.07699 15.888C2.3646 15.3235 2.82353 14.8646 3.38799 14.577C3.76599 14.384 4.15999 14.313 4.55499 14.281C4.92999 14.25 5.38499 14.25 5.91099 14.25Z" fill="black"/>
<path fill-rule="evenodd" clip-rule="evenodd" d="M1.5 12C1.5 11.7348 1.60536 11.4804 1.79289 11.2929C1.98043 11.1054 2.23478 11 2.5 11H21.5C21.7652 11 22.0196 11.1054 22.2071 11.2929C22.3946 11.4804 22.5 11.7348 22.5 12C22.5 12.2652 22.3946 12.5196 22.2071 12.7071C22.0196 12.8946 21.7652 13 21.5 13H2.5C2.23478 13 1.98043 12.8946 1.79289 12.7071C1.60536 12.5196 1.5 12.2652 1.5 12Z" fill="black"/>
</svg>
